<?xml version="1.0" standalone="no"?><!DOCTYPE svg PUBLIC "-//W3C//DTD SVG 1.1//EN" "http://www.w3.org/Graphics/SVG/1.1/DTD/svg11.dtd"><svg t="1634393984967" class="icon" viewBox="0 0 1024 1024" version="1.1" xmlns="http://www.w3.org/2000/svg" p-id="6267" width="48" height="48" xmlns:xlink="http://www.w3.org/1999/xlink"><defs><style type="text/css"></style></defs><path d="M850.563 367.108c-31.797-24.57-70.82-36.133-110.566-33.242-4.336-83.828-54.921-159.707-131.523-195.117-28.906-15.175-61.425-23.124-94.667-23.124s-65.762 7.949-94.668 23.124c-76.601 35.41-127.91 111.29-131.523 195.117-39.746-2.89-78.046 8.672-110.566 33.242-41.191 31.797-64.316 78.77-64.316 130.078 0 90.331 73.71 164.042 164.042 164.042H354.1c13.73 0 25.293-11.563 25.293-25.293s-11.562-25.293-25.293-25.293h-78.046c-62.149 0-113.457-50.586-113.457-113.456 0-35.41 16.621-67.93 44.805-90.332 28.183-21.68 63.593-28.184 98.28-19.512 0.723 0 1.446 0.723 2.168 0.723 7.95 1.445 15.899-0.723 21.68-5.781 5.781-5.059 9.394-13.008 8.672-21.68-0.723-5.781-0.723-10.84-0.723-16.62 0-68.653 40.469-131.524 103.34-160.43 0.722 0 0.722-0.723 1.445-0.723 44.082-23.125 99.003-23.125 143.085 0 0.723 0 0.723 0.723 1.446 0.723 62.87 28.906 103.34 91.777 103.34 160.43 0 5.058 0 10.839-0.724 16.62-0.722 7.95 2.168 15.898 8.672 21.68 5.782 5.058 13.73 7.226 21.68 5.78 0.723 0 1.445 0 2.168-0.722 34.687-9.394 70.097-2.168 98.28 18.79 28.184 21.679 44.805 54.92 44.805 90.331 0 62.148-50.586 113.457-113.456 113.457h-77.324c-13.73 0-25.293 11.562-25.293 25.292s11.562 25.293 25.293 25.293h77.324c90.331 0 164.042-73.71 164.042-164.042-0.723-50.586-23.848-98.28-65.039-129.355z" p-id="6268" fill="#2c2c2c"></path><path d="M604.138 708.923L539.1 773.962V651.11c0-13.73-11.563-25.293-25.293-25.293s-25.293 11.562-25.293 25.293v123.574l-65.04-65.04c-10.116-10.116-26.015-10.116-35.41 0-10.116 10.118-10.116 26.016 0 35.41l108.399 108.399 0.723 0.722c0.722 0.723 1.445 1.446 2.89 2.168 0.723 0.723 1.446 0.723 1.446 0.723 0.722 0.723 1.445 0.723 2.89 1.445 0.723 0 1.445 0.723 2.168 0.723 0.723 0 1.445 0.723 2.89 0.723s3.614 0.722 5.06 0.722h0.722c1.445 0 2.89 0 4.336-0.722 1.445 0 2.168-0.723 3.613-0.723 0.723 0 0.723 0 1.445-0.723 1.446-0.722 2.168-1.445 3.614-2.168 0 0 0.722 0 0.722-0.722 1.446-0.723 2.891-2.168 3.614-2.89l108.398-108.399c10.117-10.117 10.117-26.015 0-35.41-10.84-9.394-26.739-9.394-36.856 0zM487.068 550.662a27.46 27.46 0 1 0 54.922 0 27.46 27.46 0 1 0-54.922 0zM487.068 454.549a27.46 27.46 0 1 0 54.922 0 27.46 27.46 0 1 0-54.922 0zM487.068 358.436a27.46 27.46 0 1 0 54.922 0 27.46 27.46 0 1 0-54.922 0z" p-id="6269" fill="#2c2c2c"></path></svg>