<?xml version="1.0" standalone="no"?><!DOCTYPE svg PUBLIC "-//W3C//DTD SVG 1.1//EN" "http://www.w3.org/Graphics/SVG/1.1/DTD/svg11.dtd"><svg t="1645606287047" class="icon" viewBox="0 0 1280 1024" version="1.1" xmlns="http://www.w3.org/2000/svg" p-id="15585" width="160" height="128" xmlns:xlink="http://www.w3.org/1999/xlink"><defs><style type="text/css"></style></defs><path d="M768 640H512c-35.34 0-64 28.66-64 64v256c0 35.34 28.66 64 64 64h256c35.34 0 64-28.66 64-64V704c0-35.34-28.66-64-64-64zM384 64c0-35.34-28.66-64-64-64H64C28.66 0 0 28.66 0 64v256c0 35.34 28.66 64 64 64h191.44l146.32 256.08C423.96 601.96 464.8 576 512 576h0.56L384 351.02V256h448V128H384V64zM1216 0H960c-35.34 0-64 28.66-64 64v256c0 35.34 28.66 64 64 64h256c35.34 0 64-28.66 64-64V64c0-35.34-28.66-64-64-64z" p-id="15586" fill="#ffffff"></path></svg>