<?xml version="1.0" standalone="no"?><!DOCTYPE svg PUBLIC "-//W3C//DTD SVG 1.1//EN" "http://www.w3.org/Graphics/SVG/1.1/DTD/svg11.dtd"><svg t="1645579775950" class="icon" viewBox="0 0 1024 1024" version="1.1" xmlns="http://www.w3.org/2000/svg" p-id="3387" width="128" height="128" xmlns:xlink="http://www.w3.org/1999/xlink"><defs><style type="text/css"></style></defs><path d="M287.826 592.414L65.372 345.878H210.22S325.041 136.371 494.029 78.43c24.142-9.654 53.112-14.483 82.083-14.483-53.112 24.141-103.301 75.332-116.446 93.72-37.992 53.143-55.071 88.333-92.057 188.211h144.853L287.826 592.414zM737.49 350.619l223.223 247.388H815.365S700.026 887.053 530.454 945.194c-24.225 9.688-53.295 14.534-82.367 14.534 53.295-24.225 110.634-95.47 128.025-128.007C623 744 631 740 657.432 598.007H512.078L737.49 350.619z" p-id="3388" fill="#ffffff"></path></svg>