<?xml version="1.0" standalone="no"?><!DOCTYPE svg PUBLIC "-//W3C//DTD SVG 1.1//EN" "http://www.w3.org/Graphics/SVG/1.1/DTD/svg11.dtd"><svg t="1634356230810" class="icon" viewBox="0 0 1145 1024" version="1.1" xmlns="http://www.w3.org/2000/svg" p-id="16085" width="53.671875" height="48" xmlns:xlink="http://www.w3.org/1999/xlink"><defs><style type="text/css"></style></defs><path d="M765.025527 548.892402H648.901423v359.697145h-63.951003V548.892402h-115.881456V489.409533h295.954667v59.480974zM1018.541447 755.499546c-40.416049-81.408386-136.451556-86.462288-164.378818-137.871426-30.856099-83.262368 96.393792-98.306541 157.531596-42.211264v-74.741255c-26.050532-16.822327-67.469399-18.630813-96.52649-17.061183-76.680542 4.140181-128.209109 48.694514-127.43946 115.064414-3.304183 92.644123 102.488426 116.499449 155.611265 159.374204 36.078716 30.615346 33.496791 104.856139-55.632728 97.440212-28.530091-2.61984-65.149078-8.143872-100.535869-46.791244v79.508907c65.012588 42.258656 176.827795 34.501505 215.806913-16.289639 23.167192-30.186921 32.715768-70.623822 15.563591-116.421726z" p-id="16086" fill="#ffffff"></path><path d="M395.876486 754.250288l33.117653 115.007544h99.840152V636.190688c-47.240522 16.424233-101.570914 13.976901-150.782951-14.395848-121.595056-70.102508-121.595056-246.304726 0-316.403443 110.55647-63.738687 246.913242 3.317452 270.757194 121.399801h118.453903c-4.612207-38.34975-16.34651-73.808576-33.574514-105.476029l67.154715-119.248196-66.932919-66.93292-118.124053 67.494043a306.604637 306.604637 0 0 0-59.968165-25.629689l-35.720432-129.247945h-94.822268l-34.71003 126.593983c-22.202287 6.104112-44.21311 14.960762-65.672288 26.770893L212.394829 137.922609l-66.932919 66.93292 62.424975 111.604785c-11.758947 21.03644-20.771043 43.274745-27.072307 66.155688L58.078318 418.666283v94.822267l123.395959 33.517644a297.13568 297.13568 0 0 0 27.584143 65.759489L148.250466 726.370418l66.932919 66.932919 112.471114-65.704514c22.304654 11.986429 45.170432 20.772939 68.221987 26.653361z" p-id="16087" fill="#ffffff"></path></svg>